<?xml version="1.0" encoding="UTF-8"?>
<svg id="Layer_1" data-name="Layer 1" xmlns="http://www.w3.org/2000/svg" xmlns:xlink="http://www.w3.org/1999/xlink" viewBox="0 0 220.25 47.94">
  <defs>
    <style>
      .cls-1 {
        fill: #a93924;
      }

      .cls-1, .cls-2, .cls-3, .cls-4, .cls-5, .cls-6, .cls-7 {
        stroke-width: 0px;
      }

      .cls-2 {
        fill: #2a3b90;
      }

      .cls-8 {
        letter-spacing: -.02em;
      }

      .cls-3 {
        fill: none;
      }

      .cls-4 {
        fill: #e3c03e;
      }

      .cls-5 {
        fill: #b1b6b7;
      }

      .cls-9 {
        opacity: .54;
      }

      .cls-6 {
        fill: #4e6931;
      }

      .cls-10 {
        clip-path: url(#clippath);
      }

      .cls-11 {
        letter-spacing: .02em;
      }

      .cls-7 {
        fill: #cfd6db;
      }

      .cls-12 {
        fill: #231f20;
        font-family: FuturaBT-Heavy, 'Futura Hv BT';
        font-size: 8.12px;
        font-weight: 800;
      }
    </style>
    <clipPath id="clippath">
      <rect class="cls-3" x="1.64" y="1.31" width="52.85" height="35.23"/>
    </clipPath>
  </defs>
  <g class="cls-9">
    <g class="cls-10">
      <g>
        <g>
          <polygon class="cls-5" points="49.96 22.15 49.52 22.15 48.85 21.46 49.29 21.46 49.96 22.15"/>
          <polygon class="cls-5" points="50.79 22.15 50.35 22.15 49.68 21.46 50.12 21.46 50.79 22.15"/>
          <polygon class="cls-5" points="51.62 22.15 51.18 22.15 50.51 21.46 50.95 21.46 51.62 22.15"/>
          <polygon class="cls-5" points="52.45 22.15 52.01 22.15 51.34 21.46 51.78 21.46 52.45 22.15"/>
          <polygon class="cls-5" points="53.28 22.15 52.84 22.15 52.17 21.46 52.61 21.46 53.28 22.15"/>
          <polygon class="cls-5" points="54.11 22.15 53.67 22.15 53 21.46 53.44 21.46 54.11 22.15"/>
          <polygon class="cls-5" points="54.94 22.15 54.5 22.15 53.83 21.46 54.28 21.46 54.94 22.15"/>
          <polygon class="cls-5" points="55.77 22.15 55.33 22.15 54.67 21.46 55.11 21.46 55.77 22.15"/>
        </g>
        <g>
          <g>
            <g>
              <g>
                <path class="cls-7" d="m55.86,15.07h-15.31l-3.96-3.96h-8.77l-4.19-4.19h-5.87s-.04-.02-.04-.04.02-.04.04-.04h5.9l4.19,4.19h8.77l3.96,3.96h15.29s.04.02.04.04-.02.04-.04.04Z"/>
                <path class="cls-5" d="m24.68,11.33H7.23s-.04-.02-.04-.04.02-.04.04-.04h17.41l4.98-4.98h6.42l3.7,3.7h3.87L53.15.46s.04-.01.05,0c.01.01.01.04,0,.05l-9.54,9.54h-3.93l-3.7-3.7h-6.36l-4.98,4.98Z"/>
                <path class="cls-5" d="m55.86,22.6h-13.32l-10.09-10.09h-6.67l-4.25-4.25h-12.2s-.07-.03-.07-.07.03-.07.07-.07h12.26l4.25,4.25h6.67l10.09,10.09h13.26s.07.03.07.07-.03.07-.07.07Z"/>
                <path class="cls-5" d="m42.57,20.56h-11.2l-8.05-8.05h-11.32s-.04-.02-.04-.04.02-.04.04-.04h11.35l8.05,8.05h11.15l7.82-7.82h7.21s.04.02.04.04-.02.04-.04.04h-7.18l-7.82,7.82Z"/>
                <path class="cls-7" d="m18.8,9.83h-4.23s-.04-.02-.04-.04.02-.04.04-.04h4.2l4.44-4.44h7.52l3.07,3.07h7.33L49.24.28s.04-.01.05,0,.01.04,0,.05l-8.12,8.12h-7.39l-3.07-3.07h-7.46l-4.44,4.44Z"/>
                <path class="cls-5" d="m44.5,24.6h-5.17l-8.57-8.57h-10.8l-2.55-2.55H6.86s-.04-.02-.04-.04.02-.04.04-.04h10.59l2.55,2.55h10.8l8.57,8.57h5.11l5.35-5.35h6.03s.04.02.04.04-.02.04-.04.04h-6l-5.35,5.35Z"/>
                <path class="cls-5" d="m17.83,5.68h-5.55s-.07-.03-.07-.07.03-.07.07-.07h5.49l3.15-3.15h12.03L35.32.02s.07-.03.1,0c.03.03.03.07,0,.1l-2.41,2.41h-12.03l-3.15,3.15Z"/>
              </g>
              <path class="cls-5" d="m.7,18s-.04,0-.05-.02c-.03-.03-.03-.07,0-.1l3.81-3.81h12.03l3.32,3.32h6.01s.07.03.07.07-.03.07-.07.07h-6.07l-3.32-3.32H4.52l-3.77,3.77s-.03.02-.05.02Z"/>
              <path class="cls-5" d="m15.63,6.91h-5.19l-2.86-2.86H.7s-.04-.02-.04-.04.02-.04.04-.04h6.9l2.86,2.86h5.16s.04.02.04.04-.02.04-.04.04Z"/>
              <path class="cls-5" d="m12.28,9.83h-3.82l-3.73-3.73H.09s-.04-.02-.04-.04.02-.04.04-.04h4.67l3.73,3.73h3.79s.04.02.04.04-.02.04-.04.04Z"/>
              <path class="cls-5" d="m7.27,11.33s-.02,0-.02-.01l-3.27-3.27H.09s-.04-.02-.04-.04.02-.04.04-.04h3.92l3.29,3.29s.01.04,0,.05c0,0-.02.01-.02.01Z"/>
              <path class="cls-5" d="m46.26,12.55h-4.93s-.07-.03-.07-.07.03-.07.07-.07h4.87l4.16-4.16h2.16s.07.03.07.07-.03.07-.07.07h-2.11l-4.16,4.16Z"/>
              <g>
                <path class="cls-7" d="m44.49,25.06c-.28,0-.5-.22-.5-.5s.22-.5.5-.5.5.22.5.5-.22.5-.5.5Zm0-.93c-.24,0-.43.19-.43.43s.19.43.43.43.43-.19.43-.43-.19-.43-.43-.43Z"/>
                <circle class="cls-7" cx="44.49" cy="24.57" r=".33"/>
              </g>
              <g>
                <path class="cls-7" d="m40.54,15.53c-.28,0-.5-.22-.5-.5s.22-.5.5-.5.5.22.5.5-.22.5-.5.5Zm0-.93c-.24,0-.43.19-.43.43s.19.43.43.43.43-.19.43-.43-.19-.43-.43-.43Z"/>
                <circle class="cls-7" cx="40.54" cy="15.03" r=".33"/>
              </g>
              <g>
                <path class="cls-7" d="m40.83,12.98c-.28,0-.5-.22-.5-.5s.22-.5.5-.5.5.22.5.5-.22.5-.5.5Zm0-.93c-.24,0-.43.19-.43.43s.19.43.43.43.43-.19.43-.43-.19-.43-.43-.43Z"/>
                <circle class="cls-7" cx="40.83" cy="12.48" r=".33"/>
                <path class="cls-7" d="m35.63,12.48c0,.18-.15.33-.33.33s-.33-.15-.33-.33.15-.33.33-.33.33.15.33.33Z"/>
                <circle class="cls-7" cx="52.4" cy="17.65" r=".33"/>
              </g>
              <g>
                <path class="cls-7" d="m31.67,6.86c-.28,0-.5-.22-.5-.5s.22-.5.5-.5.5.22.5.5-.22.5-.5.5Zm0-.93c-.24,0-.43.19-.43.43s.19.43.43.43.43-.19.43-.43-.19-.43-.43-.43Z"/>
                <circle class="cls-7" cx="31.67" cy="6.36" r=".33"/>
              </g>
              <g>
                <path class="cls-5" d="m26.33,17.97c-.28,0-.5-.22-.5-.5s.22-.5.5-.5.5.22.5.5-.22.5-.5.5Zm0-.93c-.24,0-.43.19-.43.43s.19.43.43.43.43-.19.43-.43-.19-.43-.43-.43Z"/>
                <circle class="cls-5" cx="26.33" cy="17.47" r=".33"/>
              </g>
              <g>
                <path class="cls-7" d="m17.28,7.38c-.28,0-.5-.22-.5-.5s.22-.5.5-.5.5.22.5.5-.22.5-.5.5Zm0-.93c-.24,0-.43.19-.43.43s.19.43.43.43.43-.19.43-.43-.19-.43-.43-.43Z"/>
                <circle class="cls-7" cx="17.28" cy="6.88" r=".33"/>
              </g>
              <g>
                <path class="cls-5" d="m11.92,5.96c-.19,0-.35-.16-.35-.35s.16-.35.35-.35.35.16.35.35-.16.35-.35.35Zm0-.63c-.15,0-.28.13-.28.28s.13.28.28.28.28-.13.28-.28-.13-.28-.28-.28Z"/>
                <path class="cls-5" d="m12.14,5.61c0,.12-.1.22-.22.22s-.22-.1-.22-.22.1-.22.22-.22.22.1.22.22Z"/>
              </g>
              <g>
                <path class="cls-5" d="m4.75,6.41c-.19,0-.35-.16-.35-.35s.16-.35.35-.35.35.16.35.35-.16.35-.35.35Zm0-.63c-.15,0-.28.13-.28.28s.13.28.28.28.28-.13.28-.28-.13-.28-.28-.28Z"/>
                <path class="cls-5" d="m4.97,6.06c0,.12-.1.22-.22.22s-.22-.1-.22-.22.1-.22.22-.22.22.1.22.22Z"/>
              </g>
              <g>
                <path class="cls-5" d="m11.67,12.83c-.19,0-.35-.16-.35-.35s.16-.35.35-.35.35.16.35.35-.16.35-.35.35Zm0-.63c-.15,0-.28.13-.28.28s.13.28.28.28.28-.13.28-.28-.13-.28-.28-.28Z"/>
                <path class="cls-5" d="m11.89,12.48c0,.12-.1.22-.22.22s-.22-.1-.22-.22.1-.22.22-.22.22.1.22.22Z"/>
              </g>
              <g>
                <path class="cls-5" d="m6.54,13.79c-.19,0-.35-.16-.35-.35s.16-.35.35-.35.35.16.35.35-.16.35-.35.35Zm0-.63c-.15,0-.28.13-.28.28s.13.28.28.28.28-.13.28-.28-.13-.28-.28-.28Z"/>
                <path class="cls-5" d="m6.76,13.44c0,.12-.1.22-.22.22s-.22-.1-.22-.22.1-.22.22-.22.22.1.22.22Z"/>
              </g>
              <circle class="cls-7" cx="21.7" cy="6.88" r=".39"/>
              <circle class="cls-7" cx="52.17" cy="8.33" r=".39"/>
              <path class="cls-7" d="m48.43,15.03c0,.22-.18.39-.39.39s-.39-.18-.39-.39.18-.39.39-.39.39.18.39.39Z"/>
              <path class="cls-7" d="m46.76,22.53c0,.14-.12.26-.26.26s-.26-.12-.26-.26.12-.26.26-.26.26.12.26.26Z"/>
              <path class="cls-7" d="m35.56,20.53c0,.14-.12.26-.26.26s-.26-.12-.26-.26.12-.26.26-.26.26.12.26.26Z"/>
              <circle class="cls-7" cx="38.15" cy="8.43" r=".39"/>
              <path class="cls-7" d="m42.61,8.5c0,.15-.12.28-.28.28s-.28-.12-.28-.28.12-.28.28-.28.28.12.28.28Z"/>
              <path class="cls-5" d="m43.6,9c0,.16-.13.29-.29.29s-.29-.13-.29-.29.13-.29.29-.29.29.13.29.29Z"/>
              <circle class="cls-5" cx="26.87" cy="16" r=".52"/>
              <circle class="cls-7" cx="40.55" cy="20.53" r=".52"/>
              <path class="cls-7" d="m24.9,11.3c0,.13-.11.24-.24.24s-.24-.11-.24-.24.11-.24.24-.24.24.11.24.24Z"/>
              <path class="cls-5" d="m16.69,14.14c0,.13-.11.24-.24.24s-.24-.11-.24-.24.11-.24.24-.24.24.11.24.24Z"/>
              <g>
                <path class="cls-7" d="m26.35,10.14c-.29,0-.53-.24-.53-.53s.24-.53.53-.53.53.24.53.53-.24.53-.53.53Zm0-1c-.26,0-.46.21-.46.46s.21.46.46.46.46-.21.46-.46-.21-.46-.46-.46Z"/>
                <path class="cls-7" d="m26.7,9.61c0,.19-.15.35-.35.35s-.35-.15-.35-.35.15-.35.35-.35.35.15.35.35Z"/>
              </g>
              <circle class="cls-5" cx="14.57" cy="9.79" r=".39"/>
              <circle class="cls-5" cx="12.28" cy="9.79" r=".39"/>
              <circle class="cls-5" cx="7.27" cy="11.29" r=".39"/>
              <path class="cls-5" d="m4.34,8.02c0,.22-.18.39-.39.39s-.39-.18-.39-.39.18-.39.39-.39.39.18.39.39Z"/>
              <circle class="cls-7" cx="20.4" cy="8.18" r=".15"/>
              <circle class="cls-7" cx="23.62" cy="6.88" r=".27"/>
              <circle class="cls-5" cx="15.84" cy="6.88" r=".27"/>
              <circle class="cls-5" cx="9.32" cy="8.18" r=".27"/>
            </g>
            <g>
              <path class="cls-7" d="m38.94,4.05h-22.13s-.04-.02-.04-.04.02-.04.04-.04h22.13s.04.02.04.04-.02.04-.04.04Z"/>
              <circle class="cls-7" cx="16.62" cy="4.02" r=".27"/>
              <circle class="cls-7" cx="38.94" cy="4.02" r=".27"/>
            </g>
            <path class="cls-7" d="m42.39,8.46s-.02,0-.02-.01c-.01-.01-.01-.04,0-.05L50.57.19s.04-.01.05,0c.01.01.01.04,0,.05l-8.21,8.21s-.02.01-.02.01Z"/>
            <path class="cls-5" d="m43.41,8.92s-.02,0-.02-.01c-.01-.01-.01-.04,0-.05L51.6.65s.04-.01.05,0c.01.01.01.04,0,.05l-8.21,8.21s-.02.01-.02.01Z"/>
            <path class="cls-7" d="m52.28,17.68h-11.82l-5.18-5.18s-.01-.04,0-.05c.01-.01.04-.01.05,0l5.16,5.16h11.79s.04.02.04.04-.02.04-.04.04Z"/>
          </g>
          <g>
            <polygon class="cls-7" points="27.05 13.5 26.61 13.5 25.95 12.81 26.39 12.81 27.05 13.5"/>
            <polygon class="cls-7" points="27.88 13.5 27.44 13.5 26.78 12.81 27.22 12.81 27.88 13.5"/>
            <polygon class="cls-7" points="28.71 13.5 28.27 13.5 27.61 12.81 28.05 12.81 28.71 13.5"/>
            <polygon class="cls-7" points="29.54 13.5 29.1 13.5 28.44 12.81 28.88 12.81 29.54 13.5"/>
            <polygon class="cls-7" points="30.37 13.5 29.93 13.5 29.27 12.81 29.71 12.81 30.37 13.5"/>
            <polygon class="cls-7" points="31.2 13.5 30.76 13.5 30.1 12.81 30.54 12.81 31.2 13.5"/>
            <polygon class="cls-7" points="32.03 13.5 31.59 13.5 30.93 12.81 31.37 12.81 32.03 13.5"/>
            <polygon class="cls-7" points="32.87 13.5 32.42 13.5 31.76 12.81 32.2 12.81 32.87 13.5"/>
          </g>
          <g>
            <polygon class="cls-7" points="18.99 19.84 18.17 19.84 16.94 18.57 17.75 18.57 18.99 19.84"/>
            <polygon class="cls-7" points="20.53 19.84 19.71 19.84 18.48 18.57 19.29 18.57 20.53 19.84"/>
            <polygon class="cls-7" points="22.07 19.84 21.25 19.84 20.02 18.57 20.83 18.57 22.07 19.84"/>
            <polygon class="cls-7" points="23.61 19.84 22.79 19.84 21.56 18.57 22.37 18.57 23.61 19.84"/>
            <polygon class="cls-7" points="25.15 19.84 24.33 19.84 23.1 18.57 23.91 18.57 25.15 19.84"/>
            <polygon class="cls-7" points="26.69 19.84 25.87 19.84 24.64 18.57 25.45 18.57 26.69 19.84"/>
            <polygon class="cls-7" points="28.23 19.84 27.41 19.84 26.18 18.57 26.99 18.57 28.23 19.84"/>
            <polygon class="cls-7" points="29.77 19.84 28.95 19.84 27.72 18.57 28.53 18.57 29.77 19.84"/>
          </g>
          <g>
            <polygon class="cls-7" points="45.18 2.32 46 2.32 47.23 1.04 46.41 1.04 45.18 2.32"/>
            <polygon class="cls-7" points="43.64 2.32 44.46 2.32 45.69 1.04 44.87 1.04 43.64 2.32"/>
            <polygon class="cls-7" points="42.1 2.32 42.92 2.32 44.15 1.04 43.33 1.04 42.1 2.32"/>
            <polygon class="cls-7" points="40.56 2.32 41.38 2.32 42.61 1.04 41.79 1.04 40.56 2.32"/>
            <polygon class="cls-7" points="39.02 2.32 39.84 2.32 41.07 1.04 40.25 1.04 39.02 2.32"/>
            <polygon class="cls-7" points="37.48 2.32 38.3 2.32 39.53 1.04 38.71 1.04 37.48 2.32"/>
            <polygon class="cls-7" points="35.94 2.32 36.76 2.32 37.99 1.04 37.17 1.04 35.94 2.32"/>
            <polygon class="cls-7" points="34.4 2.32 35.22 2.32 36.45 1.04 35.63 1.04 34.4 2.32"/>
          </g>
        </g>
        <g>
          <polygon class="cls-5" points="4.78 16.39 5.29 16.39 5.99 15.73 5.2 15 4.7 15 5.49 15.73 4.78 16.39"/>
          <polygon class="cls-5" points="5.57 16.39 6.07 16.39 6.77 15.73 5.98 15 5.48 15 6.27 15.73 5.57 16.39"/>
          <polygon class="cls-5" points="6.35 16.39 6.85 16.39 7.55 15.73 6.77 15 6.26 15 7.05 15.73 6.35 16.39"/>
          <polygon class="cls-5" points="7.13 16.39 7.63 16.39 8.33 15.73 7.55 15 7.05 15 7.83 15.73 7.13 16.39"/>
          <polygon class="cls-5" points="7.91 16.39 8.41 16.39 9.11 15.73 8.33 15 7.83 15 8.61 15.73 7.91 16.39"/>
          <polygon class="cls-5" points="8.69 16.39 9.19 16.39 9.89 15.73 9.11 15 8.61 15 9.39 15.73 8.69 16.39"/>
          <polygon class="cls-5" points="9.47 16.39 9.98 16.39 10.68 15.73 9.89 15 9.39 15 10.18 15.73 9.47 16.39"/>
          <polygon class="cls-5" points="10.26 16.39 10.76 16.39 11.46 15.73 10.67 15 10.17 15 10.96 15.73 10.26 16.39"/>
          <polygon class="cls-5" points="11.04 16.39 11.54 16.39 12.24 15.73 11.46 15 10.95 15 11.74 15.73 11.04 16.39"/>
          <polygon class="cls-5" points="11.82 16.39 12.32 16.39 13.02 15.73 12.24 15 11.74 15 12.52 15.73 11.82 16.39"/>
          <polygon class="cls-5" points="12.6 16.39 13.1 16.39 13.8 15.73 13.02 15 12.52 15 13.3 15.73 12.6 16.39"/>
        </g>
        <g>
          <polygon class="cls-7" points="35.91 5.84 36.32 5.84 36.9 5.29 36.25 4.69 35.84 4.69 36.49 5.29 35.91 5.84"/>
          <polygon class="cls-7" points="36.55 5.84 36.97 5.84 37.55 5.29 36.9 4.69 36.48 4.69 37.13 5.29 36.55 5.84"/>
          <polygon class="cls-7" points="37.2 5.84 37.62 5.84 38.2 5.29 37.55 4.69 37.13 4.69 37.78 5.29 37.2 5.84"/>
          <polygon class="cls-7" points="37.85 5.84 38.26 5.84 38.84 5.29 38.19 4.69 37.78 4.69 38.43 5.29 37.85 5.84"/>
          <polygon class="cls-7" points="38.5 5.84 38.91 5.84 39.49 5.29 38.84 4.69 38.43 4.69 39.08 5.29 38.5 5.84"/>
          <polygon class="cls-7" points="39.14 5.84 39.56 5.84 40.14 5.29 39.49 4.69 39.07 4.69 39.72 5.29 39.14 5.84"/>
          <polygon class="cls-7" points="39.79 5.84 40.21 5.84 40.79 5.29 40.14 4.69 39.72 4.69 40.37 5.29 39.79 5.84"/>
          <polygon class="cls-7" points="40.44 5.84 40.85 5.84 41.43 5.29 40.78 4.69 40.37 4.69 41.02 5.29 40.44 5.84"/>
          <polygon class="cls-7" points="41.09 5.84 41.5 5.84 42.08 5.29 41.43 4.69 41.02 4.69 41.67 5.29 41.09 5.84"/>
          <polygon class="cls-7" points="41.73 5.84 42.15 5.84 42.73 5.29 42.08 4.69 41.66 4.69 42.31 5.29 41.73 5.84"/>
          <polygon class="cls-7" points="42.38 5.84 42.8 5.84 43.38 5.29 42.73 4.69 42.31 4.69 42.96 5.29 42.38 5.84"/>
        </g>
      </g>
    </g>
  </g>
  <g>
    <path class="cls-2" d="m21.04,10.91v23.5h-5.32l-.23-.23-6.22-6.21-3.62-3.62L0,18.69v-7.11h.9l.13.13,14.36,14.36v-9.51l.13-.13,5.52-5.52ZM0,21.25l5.65,5.65v7.48H0v-13.13Z"/>
    <path class="cls-2" d="m44.09,18.16c0,1.76-.7,3.46-1.93,4.72,1.23,1.26,1.93,2.96,1.93,4.72,0,.56-.07,1.13-.2,1.66-.7,2.79-3.09,4.82-5.98,5.05h-13.56v-10.8l5.65,5.65v.23h6.15c.96,0,1.73-.77,1.73-1.73s-.76-1.73-1.73-1.73h-6.15v.66l-5.65-5.65v-9.44h13.06c3.09,0,5.78,2.09,6.55,5.09.13.53.2,1.1.2,1.66l-.07-.1Zm-14.09.37l1.5,1.5h4.62c.96,0,1.73-.77,1.73-1.73s-.76-1.73-1.73-1.73h-6.15l.03,1.96Z"/>
    <path class="cls-4" d="m53.14,11.54v8.48l-5.65-5.65v-2.83h5.65Zm-5.65,5.42l5.65,5.65v11.77h-5.65v-17.42Z"/>
    <path class="cls-4" d="m77.51,10.91v23.5h-5.32l-.23-.23-6.22-6.21-3.62-3.62-5.65-5.65v-7.11h.9l.13.13,14.36,14.36v-9.51l.13-.13,5.52-5.52Zm-21.04,10.34l5.65,5.65v7.48h-5.65v-13.13Z"/>
    <path class="cls-4" d="m100.53,11.54v5.65h-14.06v.66l-5.65-5.65v-.66h19.71Zm-14.36,8.61h8.11v5.65h-7.78v8.58h-5.65V14.8l5.32,5.35Z"/>
    <path class="cls-4" d="m118.65,23.94l5.69.11-.06.51c-.38,2.53-1.55,4.81-3.4,6.59-2.2,2.12-5.09,3.24-8.15,3.18-3.05-.06-5.9-1.29-8.02-3.5-1.77-1.85-2.86-4.17-3.14-6.71l-.04-.52,5.69.11.06.36c.21,1.04.74,2.01,1.5,2.8,1.06,1.1,2.48,1.72,4.03,1.75,1.55.03,3-.53,4.1-1.59.79-.76,1.35-1.71,1.61-2.74l.12-.35Zm-5.47-12.45c3.05.06,5.9,1.29,8.02,3.49,1.77,1.85,2.86,4.17,3.13,6.71l.04.52-5.69-.11-.06-.36c-.21-1.04-.74-2.01-1.5-2.8-1.06-1.1-2.48-1.72-4.03-1.75-1.55-.03-3,.53-4.1,1.59-.79.76-1.35,1.71-1.61,2.74l-.08.35-5.69-.11.06-.52c.38-2.53,1.55-4.81,3.4-6.59,2.2-2.12,5.09-3.24,8.15-3.18h-.05Z"/>
    <path class="cls-6" d="m147.92,11.54v5.65h-8.61v8.41l-5.65-5.65v-2.76h-8.58v-5.65h22.84Zm-14.26,11l5.65,5.65v6.18h-5.65v-11.83Z"/>
    <path class="cls-6" d="m158.14,25.87l-6.91-6.92v-7.38h19.08v5.65h-12.8l2.96,2.96h9.84v5.65l-12.16.03Zm12.16,2.89v5.65h-19.05v-12.93l5.65,5.65v1.59l13.39.03Z"/>
    <path class="cls-6" d="m191.12,24.7h5.98l-.13.57c-.37,1.66-1.13,3.26-2.19,4.62-1.03,1.33-2.39,2.46-3.89,3.22-.27.13-.53.27-.8.37-1.46.6-2.99.9-4.59.9-3.12,0-6.08-1.23-8.31-3.46-2.23-2.23-3.46-5.19-3.46-8.31,0-1.33.23-2.66.67-3.92l.23-.7,4.92,4.92v.17c.1,1.4.7,2.73,1.69,3.72,1,1,2.33,1.59,3.72,1.69.27.04.57.04.83.04.6-.04,1.2-.17,1.76-.37.2-.06.37-.13.53-.23.57-.3,1.1-.66,1.56-1.13.56-.57,1-1.2,1.3-1.93l.17-.17Zm-11.23-4.19l-4.29-4.29.23-.3c2.19-3.16,5.82-5.05,9.67-5.05,2.69,0,5.32.93,7.41,2.63,2.06,1.66,3.49,3.99,4.05,6.55l.13.57h-5.98l-.13-.27c-.3-.73-.73-1.36-1.3-1.93-1.13-1.13-2.63-1.76-4.22-1.76s-3.09.63-4.22,1.76c-.46.47-.83,1-1.13,1.56l-.23.53Z"/>
    <path class="cls-6" d="m220.25,11.57v22.83h-5.65v-8.57h-6.65l-7.61-7.61v-6.68h5.65v4.32l4.29,4.29h4.32v-8.61l5.65.03Zm-19.91,9.21l5.65,5.65v7.94h-5.65v-13.59Z"/>
    <circle class="cls-1" cx="50.32" cy="4.62" r="3.07"/>
    <g>
      <text class="cls-12" transform="translate(18.73 46.02)"><tspan x="0" y="0">TE</tspan><tspan class="cls-8" x="9.04" y="0">A</tspan><tspan x="14.68" y="0">CHING</tspan></text>
      <text class="cls-12" transform="translate(68.92 46.02)"><tspan x="0" y="0">SHOPPING</tspan></text>
      <text class="cls-12" transform="translate(173.54 46.02)"><tspan class="cls-11" x="0" y="0">E</tspan><tspan x="4.79" y="0">-MITRA</tspan></text>
      <text class="cls-12" transform="translate(119.05 46.02)"><tspan x="0" y="0">INSURENCE</tspan></text>
      <circle class="cls-1" cx="64.75" cy="43.5" r="1.22"/>
      <circle class="cls-1" cx="115.57" cy="43.5" r="1.22"/>
      <circle class="cls-1" cx="170.3" cy="43.5" r="1.22"/>
    </g>
  </g>
</svg>