<svg xmlns="http://www.w3.org/2000/svg" width="265.082" height="70.557" viewBox="0 0 265.082 70.557">
  <g id="Layer_x0020_1" transform="translate(0 0)">
    <g id="_2326128877088" transform="translate(0 0)">
      <path id="Path_1" data-name="Path 1" d="M554.159,450.176a5.941,5.941,0,0,1-.975,1.837,4.98,4.98,0,0,1-1.558,1.316,4.372,4.372,0,0,1-2.114.5,4.517,4.517,0,0,1-2.081-.476,4.889,4.889,0,0,1-1.581-1.272,5.823,5.823,0,0,1-1.006-1.834,6.58,6.58,0,0,1-.011-4.236,5.7,5.7,0,0,1,.983-1.826,5.112,5.112,0,0,1,1.573-1.3,4.708,4.708,0,0,1,4.169-.021,4.954,4.954,0,0,1,1.57,1.264,5.691,5.691,0,0,1,1.008,1.813,6.556,6.556,0,0,1,.353,2.157,6.649,6.649,0,0,1-.332,2.081Zm2.335-4.969a8.456,8.456,0,0,0-1.528-2.553,7.667,7.667,0,0,0-2.369-1.826,6.721,6.721,0,0,0-3.064-.7,7.019,7.019,0,0,0-3.02.651,7.562,7.562,0,0,0-2.389,1.761,8.3,8.3,0,0,0-1.581,2.545,7.993,7.993,0,0,0-.574,3.007,8.258,8.258,0,0,0,.541,2.944,8.092,8.092,0,0,0,1.536,2.553,7.655,7.655,0,0,0,2.377,1.794,7.277,7.277,0,0,0,6.063.021,7.781,7.781,0,0,0,2.4-1.749,7.981,7.981,0,0,0,1.58-2.532,8.2,8.2,0,0,0,.025-5.922Z" transform="translate(-474.759 -385.549)" fill="#1a3584"/>
      <path id="Path_2" data-name="Path 2" d="M710.509,441.03,705.8,453.62l-4.735-12.59h-2.63l6.3,15.709h2.124l6.284-15.709Z" transform="translate(-611.816 -386.337)" fill="#1a3584"/>
      <path id="Path_3" data-name="Path 3" d="M867.187,454.557v-4.8H874.2V447.7h-7.015v-4.471h8.1V441.04H864.71v15.709h10.773v-2.191Z" transform="translate(-757.476 -386.346)" fill="#1a3584"/>
      <path id="Path_4" data-name="Path 4" d="M1012.177,448.869a2.013,2.013,0,0,1-.961.233h-4.337v-5.866h4.2a2.062,2.062,0,0,1,.94.233,2.7,2.7,0,0,1,.8.63,3.315,3.315,0,0,1,.553.931,3.046,3.046,0,0,1,.208,1.127,3.562,3.562,0,0,1-.175,1.127,3.341,3.341,0,0,1-.489.941,2.211,2.211,0,0,1-.74.641Zm.851,1.915a4,4,0,0,0,1.264-.676,4.408,4.408,0,0,0,.971-1.073,5.272,5.272,0,0,0,.62-1.349,5.2,5.2,0,0,0,.222-1.527,5.02,5.02,0,0,0-.366-1.868,5.438,5.438,0,0,0-1-1.638,5.032,5.032,0,0,0-1.54-1.161,4.351,4.351,0,0,0-1.957-.443H1004.4v15.709h2.479v-5.466h3.626l3.407,5.466h2.811l-3.7-5.974Z" transform="translate(-879.842 -386.354)" fill="#1a3584"/>
      <path id="Path_5" data-name="Path 5" d="M1156.671,449.8a3.534,3.534,0,0,0-1.029-1.251,6.212,6.212,0,0,0-1.626-.863,20.049,20.049,0,0,0-2.158-.64c-.647-.162-1.217-.312-1.7-.455a5.7,5.7,0,0,1-1.217-.489,2.013,2.013,0,0,1-.719-.639,1.747,1.747,0,0,1-.231-.94,1.906,1.906,0,0,1,.742-1.595,3.763,3.763,0,0,1,2.31-.574,6.236,6.236,0,0,1,1.383.154,7.358,7.358,0,0,1,1.241.4,6.58,6.58,0,0,1,.984.52,3.409,3.409,0,0,1,.641.52l1.129-2.035a9.734,9.734,0,0,0-2.365-1.26,8.239,8.239,0,0,0-2.944-.51,7.84,7.84,0,0,0-2.256.311,5.244,5.244,0,0,0-1.8.919,4.354,4.354,0,0,0-1.207,1.5,4.571,4.571,0,0,0-.442,2.046,3.783,3.783,0,0,0,.3,1.582,3.216,3.216,0,0,0,.873,1.14,5.051,5.051,0,0,0,1.45.83,18.729,18.729,0,0,0,2.047.652q1.014.268,1.813.51a7.626,7.626,0,0,1,1.349.541,2.618,2.618,0,0,1,.854.7,1.641,1.641,0,0,1,.3,1,1.68,1.68,0,0,1-.8,1.506,4.2,4.2,0,0,1-2.258.507,7.13,7.13,0,0,1-1.749-.208,11.214,11.214,0,0,1-1.559-.51,7.744,7.744,0,0,1-1.264-.651,5.38,5.38,0,0,1-.83-.644l-1.127,2.123a9.848,9.848,0,0,0,3.021,1.582,11.119,11.119,0,0,0,3.464.543,9.444,9.444,0,0,0,2.234-.254,5.456,5.456,0,0,0,1.825-.8,3.87,3.87,0,0,0,1.239-1.408,4.347,4.347,0,0,0,.455-2.056,4.061,4.061,0,0,0-.366-1.8Z" transform="translate(-1002.831 -385.557)" fill="#1a3584"/>
      <path id="Path_6" data-name="Path 6" d="M1298.047,454.557v-4.8h7.014V447.7h-7.014v-4.471h8.1V441.04H1295.57v15.709h10.772v-2.191Z" transform="translate(-1134.904 -386.346)" fill="#1a3584"/>
      <path id="Path_7" data-name="Path 7" d="M1426.934,450.642l2.611-6.747,2.52,6.747Zm3.693-9.6h-2.166l-6.24,15.707h2.633l1.638-4.268h6.062l1.659,4.268h2.612l-6.2-15.707Z" transform="translate(-1245.848 -386.346)" fill="#1a3584"/>
      <path id="Path_8" data-name="Path 8" d="M1588.069,449.8a3.529,3.529,0,0,0-1.029-1.251,6.224,6.224,0,0,0-1.625-.863,20.144,20.144,0,0,0-2.158-.64c-.649-.162-1.217-.312-1.705-.455a5.744,5.744,0,0,1-1.216-.489,2.019,2.019,0,0,1-.718-.639,1.737,1.737,0,0,1-.231-.94,1.9,1.9,0,0,1,.74-1.595,3.763,3.763,0,0,1,2.31-.574,6.28,6.28,0,0,1,1.386.154,7.431,7.431,0,0,1,1.239.4,6.569,6.569,0,0,1,.984.52,3.4,3.4,0,0,1,.641.52l1.129-2.035a9.722,9.722,0,0,0-2.366-1.26,8.238,8.238,0,0,0-2.943-.51,7.841,7.841,0,0,0-2.256.311,5.243,5.243,0,0,0-1.8.919,4.371,4.371,0,0,0-1.208,1.5,4.566,4.566,0,0,0-.443,2.046,3.761,3.761,0,0,0,.3,1.582,3.207,3.207,0,0,0,.873,1.14,5.053,5.053,0,0,0,1.45.83,18.885,18.885,0,0,0,2.046.652q1.016.268,1.813.51a7.637,7.637,0,0,1,1.349.541,2.605,2.605,0,0,1,.853.7,1.633,1.633,0,0,1,.3,1,1.679,1.679,0,0,1-.795,1.506,4.206,4.206,0,0,1-2.258.507,7.134,7.134,0,0,1-1.748-.208,11.212,11.212,0,0,1-1.559-.51,7.7,7.7,0,0,1-1.263-.651,5.327,5.327,0,0,1-.829-.644l-1.128,2.123a9.844,9.844,0,0,0,3.021,1.582,11.117,11.117,0,0,0,3.462.543,9.424,9.424,0,0,0,2.233-.254,5.474,5.474,0,0,0,1.826-.8,3.844,3.844,0,0,0,1.237-1.408,4.33,4.33,0,0,0,.455-2.056,4.08,4.08,0,0,0-.365-1.8Z" transform="translate(-1380.733 -385.557)" fill="#1a3584"/>
      <path id="Path_9" data-name="Path 9" d="M950.622,48.834V14.8H937.86V58.672h28.667l2.109-9.838Z" transform="translate(-821.554 -12.965)" fill="#1a3584"/>
      <path id="Path_10" data-name="Path 10" d="M1235.295,48.834V14.8H1222.53V58.672H1251.2l2.112-9.838Z" transform="translate(-1070.922 -12.965)" fill="#1a3584"/>
      <path id="Path_11" data-name="Path 11" d="M1515.724,41.387h16.618V31.548h-16.618v-6.91H1534.4l-2.111-9.838H1502.96V58.672h31.44V48.833h-18.676Z" transform="translate(-1316.575 -12.965)" fill="#1a3584"/>
      <path id="Path_12" data-name="Path 12" d="M1838.537,14.8V34.7l-25.574-19.9h-2.8V58.672h12.227V38.847l25.621,19.825h2.753V14.8Z" transform="translate(-1585.678 -12.965)" fill="#1a3584"/>
      <path id="Path_13" data-name="Path 13" d="M569.137,41.388l-2.846,1.641-2.845-1.641V38.1l2.845-1.644,2.846,1.644ZM567.789,14.81h-2.944L542.89,58.682H555.4l3.789-7.513h14.285l3.753,7.513h12.463l-21.9-43.872Z" transform="translate(-475.565 -12.973)" fill="#1a3584"/>
      <path id="Path_14" data-name="Path 14" d="M25.916,59.335V29.984l25.42,14.676Zm0-59.046,25.42,14.676L25.916,29.64Zm25.519,44.2L26.018,29.812,51.435,15.137ZM25.716,29.64.3,14.965,25.716.289Zm0,29.695L.3,44.659,25.716,29.984ZM.2,15.137,25.617,29.812.2,44.488ZM25.818,0,0,14.906V44.718L25.818,59.623,51.635,44.718V14.906L25.818,0Z" transform="translate(0 0)" fill="#1a3584"/>
      <path id="Path_15" data-name="Path 15" d="M0,187.762l12.908,7.451v-14.9Z" transform="translate(0 -157.949)" fill="#1e8dbe"/>
      <path id="Path_16" data-name="Path 16" d="M12.908,127.662,0,135.113v-14.9Z" transform="translate(0 -105.302)" fill="#ffe346"/>
      <path id="Path_17" data-name="Path 17" d="M12.91,247.862,0,255.313v-14.9Z" transform="translate(0 -210.596)" fill="#1eaab1"/>
      <path id="Path_18" data-name="Path 18" d="M325.178,187.762l-12.908,7.451v-14.9Z" transform="translate(-273.545 -157.949)" fill="#b9ce34"/>
      <path id="Path_19" data-name="Path 19" d="M312.27,127.662l12.908,7.451v-14.9Z" transform="translate(-273.545 -105.302)" fill="#b8c62e"/>
      <path id="Path_20" data-name="Path 20" d="M312.27,247.861l12.908,7.452v-14.9Z" transform="translate(-273.545 -210.596)" fill="#84ae28"/>
      <path id="Path_21" data-name="Path 21" d="M221.088,60.1,208.18,67.552l12.908,7.454Z" transform="translate(-182.363 -52.647)" fill="#6fa80b"/>
      <path id="Path_22" data-name="Path 22" d="M312.27,75.006V60.1l12.908,7.454Z" transform="translate(-273.545 -52.647)" fill="#86cc21"/>
      <path id="Path_23" data-name="Path 23" d="M208.18,14.906V0l12.908,7.456Z" transform="translate(-182.363 0)" fill="#65b716"/>
      <path id="Path_24" data-name="Path 24" d="M104.09,60.1,117,67.552,104.09,75.006Z" transform="translate(-91.182 -52.647)" fill="#a5d316"/>
      <path id="Path_25" data-name="Path 25" d="M12.908,75.006V60.1L0,67.554Z" transform="translate(0 -52.647)" fill="#bfe51f"/>
      <path id="Path_26" data-name="Path 26" d="M117,14.906V0L104.09,7.456Z" transform="translate(-91.182 0)" fill="#7dcc29"/>
      <path id="Path_27" data-name="Path 27" d="M221.088,315.4l-12.908-7.449,12.908-7.456Z" transform="translate(-182.363 -263.226)" fill="#00642b"/>
      <path id="Path_28" data-name="Path 28" d="M312.27,300.49V315.4l12.908-7.453Z" transform="translate(-273.545 -263.226)" fill="#46790c"/>
      <path id="Path_29" data-name="Path 29" d="M208.18,360.59v14.9l12.908-7.453Z" transform="translate(-182.363 -315.873)" fill="#005200"/>
      <path id="Path_30" data-name="Path 30" d="M104.09,315.4,117,307.946,104.09,300.49Z" transform="translate(-91.182 -263.226)" fill="#00633d"/>
      <path id="Path_31" data-name="Path 31" d="M12.91,300.5v14.9L0,307.951Z" transform="translate(0 -263.234)" fill="#0e3f88"/>
      <path id="Path_32" data-name="Path 32" d="M117,360.59v14.9l-12.908-7.453Z" transform="translate(-91.182 -315.873)" fill="#00764b"/>
    </g>
  </g>
</svg>
